<svg width="375" height="812" viewBox="0 0 375 812" fill="none" xmlns="http://www.w3.org/2000/svg">
<g id="adventure-screen1">
<rect width="375" height="812" fill="#E3DBD3"/>
<g id="Castle">
<rect id="Rectangle 15" x="53" y="117" width="273" height="261" fill="#76A4BA"/>
<rect id="Rectangle 16" x="25" y="64" width="329" height="68" fill="#76A4BA"/>
<rect id="Rectangle 18" x="25" y="30" width="50.4" height="68" fill="#76A4BA"/>
<rect id="Rectangle 19" x="303.6" y="30" width="50.4" height="68" fill="#76A4BA"/>
<rect id="Rectangle 20" x="94.9999" y="30" width="50.4" height="68" fill="#76A4BA"/>
<rect id="Rectangle 21" x="165" y="30" width="50.4" height="68" fill="#76A4BA"/>
<rect id="Rectangle 22" x="235" y="30" width="50.4" height="68" fill="#76A4BA"/>
<rect id="Rectangle 17" x="25" y="117" width="329" height="15" fill="black" fill-opacity="0.23"/>
</g>
<path id="Rectangle 27" d="M176 241C176 210.072 201.072 185 232 185C262.928 185 288 210.072 288 241V378H176V241Z" fill="#4F7181"/>
<path id="door" d="M188 256C188 231.699 207.699 212 232 212C256.301 212 276 231.699 276 256V378H188V256Z" fill="#4C4C4C"/>
<path id="Rectangle 28" d="M78 218.5C78 199.998 92.9985 185 111.5 185C130.002 185 145 199.998 145 218.5V310H78V218.5Z" fill="#4F7181"/>
<path id="Rectangle 29" d="M90 222C90 208.193 101.193 197 115 197C128.807 197 140 208.193 140 222V304H90V222Z" fill="#4C4C4C"/>
<g id="hero">
<path id="body" d="M237 516C262.957 516 284 537.043 284 563C284 576.373 278.414 588.441 269.449 597H297V697H272V622H265V763H240V663H233V763H208V622H201V697H176V597H204.551C195.586 588.441 190 576.373 190 563C190 537.043 211.043 516 237 516Z" fill="#A359A2"/>
<g id="tie">
<circle id="Ellipse 2" cx="235.2" cy="611" r="12.1667" fill="#FFB5E6" stroke="white"/>
<path id="Polygon 1" d="M195.8 626.707L195.8 595.293L233.889 611L195.8 626.707Z" fill="#FFB5E6" stroke="white"/>
<path id="Polygon 4" d="M195.95 619.893L195.95 602.107L233.055 611L195.95 619.893Z" fill="#FFB5E6" stroke="white"/>
<path id="Polygon 2" d="M274.6 595.293L274.6 626.707L236.511 611L274.6 595.293Z" fill="#FFB5E6" stroke="white"/>
<path id="Polygon 3" d="M274.45 603.813L274.45 618.187L237.797 611L274.45 603.813Z" fill="#FFB5E6" stroke="white"/>
<circle id="Ellipse 3" cx="235.2" cy="611" r="8.5" fill="#FFB5E6" stroke="white"/>
</g>
<g id="shield">
<circle id="Ellipse 3_2" cx="185" cy="682" r="47" fill="white" stroke="#BB5353" stroke-width="4"/>
<g id="Ellipse 4">
<circle cx="185" cy="682" r="24.1343" fill="white"/>
<circle cx="185" cy="682" r="24.1343" fill="#BB5353"/>
</g>
<g id="Ellipse 5">
<circle cx="185" cy="682" r="13.8955" fill="white"/>
<circle cx="185" cy="682" r="13.8955" fill="white"/>
</g>
<g id="Ellipse 6">
<circle cx="185" cy="682" r="8.04478" fill="white"/>
<circle cx="185" cy="682" r="8.04478" fill="#BB5353"/>
</g>
</g>
<g id="helmet">
<g id="Union">
<mask id="path-24-inside-1_2_2" fill="white">
<path d="M236.499 499.001C261.17 505.138 280.854 524.993 287.997 550.559H242.999V579.999H228.999V550.559H185C192.143 524.993 211.827 505.138 236.499 499.001Z"/>
</mask>
<path d="M236.499 499.001C261.17 505.138 280.854 524.993 287.997 550.559H242.999V579.999H228.999V550.559H185C192.143 524.993 211.827 505.138 236.499 499.001Z" fill="#B5B5B5"/>
<path d="M236.499 499.001L236.74 498.031L236.499 497.971L236.258 498.031L236.499 499.001ZM287.997 550.559V551.559H289.315L288.96 550.289L287.997 550.559ZM242.999 550.559V549.559H241.999V550.559H242.999ZM242.999 579.999V580.999H243.999V579.999H242.999ZM228.999 579.999H227.999V580.999H228.999V579.999ZM228.999 550.559H229.999V549.559H228.999V550.559ZM185 550.559L184.037 550.29L183.682 551.559H185V550.559ZM236.499 499.001L236.258 499.971C260.556 506.016 279.981 525.585 287.034 550.828L287.997 550.559L288.96 550.289C281.727 524.401 261.785 504.26 236.74 498.031L236.499 499.001ZM287.997 550.559V549.559H242.999V550.559V551.559H287.997V550.559ZM242.999 550.559H241.999V579.999H242.999H243.999V550.559H242.999ZM242.999 579.999V578.999H228.999V579.999V580.999H242.999V579.999ZM228.999 579.999H229.999V550.559H228.999H227.999V579.999H228.999ZM228.999 550.559V549.559H185V550.559V551.559H228.999V550.559ZM185 550.559L185.963 550.828C193.016 525.584 212.442 506.016 236.74 499.971L236.499 499.001L236.258 498.031C211.213 504.26 191.27 524.401 184.037 550.29L185 550.559Z" fill="#F1F1F1" mask="url(#path-24-inside-1_2_2)"/>
</g>
<g id="Group 6">
<g id="Union_2">
<mask id="path-26-inside-2_2_2" fill="white">
<path d="M236.499 499.001C255.422 505.138 270.516 524.993 275.995 550.559H241.484V579.999H230.747V550.559H197.002C202.481 524.993 217.576 505.138 236.499 499.001Z"/>
</mask>
<path d="M236.499 499.001C255.422 505.138 270.516 524.993 275.995 550.559H241.484V579.999H230.747V550.559H197.002C202.481 524.993 217.576 505.138 236.499 499.001Z" fill="#B5B5B5"/>
<path d="M236.499 499.001L236.808 498.05L236.499 497.95L236.191 498.05L236.499 499.001ZM275.995 550.559V551.559H277.232L276.973 550.349L275.995 550.559ZM241.484 550.559V549.559H240.484V550.559H241.484ZM241.484 579.999V580.999H242.484V579.999H241.484ZM230.747 579.999H229.747V580.999H230.747V579.999ZM230.747 550.559H231.747V549.559H230.747V550.559ZM197.002 550.559L196.024 550.349L195.765 551.559H197.002V550.559ZM236.499 499.001L236.191 499.952C254.663 505.943 269.585 525.421 275.017 550.768L275.995 550.559L276.973 550.349C271.447 524.566 256.18 504.333 236.808 498.05L236.499 499.001ZM275.995 550.559V549.559H241.484V550.559V551.559H275.995V550.559ZM241.484 550.559H240.484V579.999H241.484H242.484V550.559H241.484ZM241.484 579.999V578.999H230.747V579.999V580.999H241.484V579.999ZM230.747 579.999H231.747V550.559H230.747H229.747V579.999H230.747ZM230.747 550.559V549.559H197.002V550.559V551.559H230.747V550.559ZM197.002 550.559L197.98 550.768C203.412 525.42 218.335 505.943 236.808 499.952L236.499 499.001L236.191 498.05C216.818 504.333 201.549 524.566 196.024 550.349L197.002 550.559Z" fill="#D8D8D8" mask="url(#path-26-inside-2_2_2)"/>
</g>
</g>
</g>
</g>
<g id="tie-btn">
<circle id="Ellipse 11" cx="65" cy="737" r="40" fill="black" fill-opacity="0.47"/>
<circle id="Ellipse 12" cx="65" cy="732" r="40" fill="#FFBB56"/>
<g id="figure" opacity="0.7">
<circle id="Ellipse 2_2" cx="65.2" cy="734" r="9.07143" fill="#FFB5E6" stroke="white"/>
<path id="Polygon 1_2" d="M35.5496 745.686L35.5496 722.314L63.8885 733.999L35.5496 745.686Z" fill="#FFB5E6" stroke="white"/>
<path id="Polygon 4_2" d="M35.6629 740.565L35.6629 727.435L63.0574 733.999L35.6629 740.565Z" fill="#FFB5E6" stroke="white"/>
<path id="Polygon 2_2" d="M94.8504 722.314L94.8504 745.686L66.5115 734.001L94.8504 722.314Z" fill="#FFB5E6" stroke="white"/>
<path id="Polygon 3_2" d="M94.7371 728.718L94.7371 739.282L67.7967 734L94.7371 728.718Z" fill="#FFB5E6" stroke="white"/>
<circle id="Ellipse 3_3" cx="65.2" cy="734" r="6.30075" fill="#FFB5E6" stroke="white"/>
</g>
<circle id="Ellipse 13" cx="65" cy="732" r="36" fill="url(#paint0_linear_2_2)"/>
</g>
<g id="helmet-btn">
<circle id="Ellipse 11_2" cx="65" cy="511" r="40" fill="black" fill-opacity="0.47"/>
<circle id="Ellipse 12_2" cx="65" cy="506" r="40" fill="#FFBB56"/>
<g id="figure_2" opacity="0.75">
<g id="Union_3">
<mask id="path-39-inside-3_2_2" fill="white">
<path d="M65.4993 481.001C78.5966 484.259 89.0452 494.799 92.8372 508.371H68.9505V524H61.5189V508.371H38.1634C41.9555 494.8 52.4026 484.259 65.4993 481.001Z"/>
</mask>
<path d="M65.4993 481.001C78.5966 484.259 89.0452 494.799 92.8372 508.371H68.9505V524H61.5189V508.371H38.1634C41.9555 494.8 52.4026 484.259 65.4993 481.001Z" fill="#B5B5B5"/>
<path d="M65.4993 481.001L65.7407 480.031L65.4993 479.971L65.2579 480.031L65.4993 481.001ZM92.8372 508.371V509.371H94.1549L93.8003 508.102L92.8372 508.371ZM68.9505 508.371V507.371H67.9505V508.371H68.9505ZM68.9505 524V525H69.9505V524H68.9505ZM61.5189 524H60.5189V525H61.5189V524ZM61.5189 508.371H62.5189V507.371H61.5189V508.371ZM38.1634 508.371L37.2003 508.102L36.8457 509.371H38.1634V508.371ZM65.4993 481.001L65.2579 481.971C77.9824 485.136 88.1722 495.391 91.8741 508.64L92.8372 508.371L93.8003 508.102C89.9181 494.208 79.2108 483.381 65.7407 480.031L65.4993 481.001ZM92.8372 508.371V507.371H68.9505V508.371V509.371H92.8372V508.371ZM68.9505 508.371H67.9505V524H68.9505H69.9505V508.371H68.9505ZM68.9505 524V523H61.5189V524V525H68.9505V524ZM61.5189 524H62.5189V508.371H61.5189H60.5189V524H61.5189ZM61.5189 508.371V507.371H38.1634V508.371V509.371H61.5189V508.371ZM38.1634 508.371L39.1265 508.64C42.8285 495.391 53.0169 485.137 65.7407 481.971L65.4993 481.001L65.2579 480.031C51.7883 483.381 41.0825 494.208 37.2003 508.102L38.1634 508.371Z" fill="#F1F1F1" mask="url(#path-39-inside-3_2_2)"/>
</g>
<g id="Group 6_2">
<g id="Union_4">
<mask id="path-41-inside-4_2_2" fill="white">
<path d="M65.4996 481.001C75.545 484.259 83.5589 494.799 86.4673 508.371H68.1461V524H62.4459V508.371H44.5318C47.4402 494.799 55.4545 484.259 65.4996 481.001Z"/>
</mask>
<path d="M65.4996 481.001C75.545 484.259 83.5589 494.799 86.4673 508.371H68.1461V524H62.4459V508.371H44.5318C47.4402 494.799 55.4545 484.259 65.4996 481.001Z" fill="#B5B5B5"/>
<path d="M65.4996 481.001L65.8081 480.05L65.4996 479.95L65.191 480.05L65.4996 481.001ZM86.4673 508.371V509.371H87.7043L87.4451 508.162L86.4673 508.371ZM68.1461 508.371V507.371H67.1461V508.371H68.1461ZM68.1461 524V525H69.1461V524H68.1461ZM62.4459 524H61.4459V525H62.4459V524ZM62.4459 508.371H63.4459V507.371H62.4459V508.371ZM44.5318 508.371L43.554 508.162L43.2948 509.371H44.5318V508.371ZM65.4996 481.001L65.1911 481.952C74.7863 485.064 82.6278 495.227 85.4895 508.581L86.4673 508.371L87.4451 508.162C84.49 494.372 76.3036 483.454 65.8081 480.05L65.4996 481.001ZM86.4673 508.371V507.371H68.1461V508.371V509.371H86.4673V508.371ZM68.1461 508.371H67.1461V524H68.1461H69.1461V508.371H68.1461ZM68.1461 524V523H62.4459V524V525H68.1461V524ZM62.4459 524H63.4459V508.371H62.4459H61.4459V524H62.4459ZM62.4459 508.371V507.371H44.5318V508.371V509.371H62.4459V508.371ZM44.5318 508.371L45.5096 508.581C48.3713 495.227 56.2131 485.064 65.8081 481.952L65.4996 481.001L65.191 480.05C54.6958 483.454 46.5091 494.372 43.554 508.162L44.5318 508.371Z" fill="#D8D8D8" mask="url(#path-41-inside-4_2_2)"/>
</g>
</g>
</g>
<circle id="Ellipse 13_2" cx="65" cy="506" r="36" fill="url(#paint1_linear_2_2)"/>
</g>
<g id="shield-btn">
<circle id="Ellipse 11_3" cx="65" cy="624" r="40" fill="black" fill-opacity="0.47"/>
<circle id="Ellipse 12_3" cx="65" cy="619" r="40" fill="#FFBB56"/>
<g id="figure_3" opacity="0.7">
<circle id="Ellipse 3_4" cx="65" cy="620" r="23" fill="white" stroke="#BB5353" stroke-width="4"/>
<g id="Ellipse 4_2">
<circle cx="65" cy="620" r="12.3134" fill="white"/>
<circle cx="65" cy="620" r="12.3134" fill="#BB5353"/>
</g>
<g id="Ellipse 5_2">
<circle cx="65" cy="620" r="7.08955" fill="white"/>
<circle cx="65" cy="620" r="7.08955" fill="white"/>
</g>
<g id="Ellipse 6_2">
<circle cx="65" cy="620" r="4.10448" fill="white"/>
<circle cx="65" cy="620" r="4.10448" fill="#BB5353"/>
</g>
</g>
<circle id="Ellipse 13_3" cx="65" cy="619" r="36" fill="url(#paint2_linear_2_2)"/>
</g>
</g>
<defs>
<linearGradient id="paint0_linear_2_2" x1="65" y1="696" x2="65" y2="768" gradientUnits="userSpaceOnUse">
<stop stop-color="white" stop-opacity="0.52"/>
<stop offset="0.445" stop-color="white" stop-opacity="0"/>
</linearGradient>
<linearGradient id="paint1_linear_2_2" x1="65" y1="470" x2="65" y2="542" gradientUnits="userSpaceOnUse">
<stop stop-color="white" stop-opacity="0.52"/>
<stop offset="0.445" stop-color="white" stop-opacity="0"/>
</linearGradient>
<linearGradient id="paint2_linear_2_2" x1="65" y1="583" x2="65" y2="655" gradientUnits="userSpaceOnUse">
<stop stop-color="white" stop-opacity="0.52"/>
<stop offset="0.445" stop-color="white" stop-opacity="0"/>
</linearGradient>
</defs>
</svg>
