<svg width="161" height="264" viewBox="0 0 161 264" fill="none" xmlns="http://www.w3.org/2000/svg">
<path d="M101 16.999C126.957 16.999 148 38.0416 148 63.999C148 77.3722 142.414 89.4403 133.449 97.999H161V197.999H136V122.999H129V263.999H104V163.999H97V263.999H72V122.999H65V197.999H40V97.999H68.5508C59.5857 89.4403 54 77.3722 54 63.999C54 38.0416 75.0426 16.999 101 16.999Z" fill="#A359A2"/>
<circle cx="99.2" cy="111.999" r="12.1667" fill="#FFB5E6" stroke="white"/>
<path d="M59.7996 127.706L59.7996 96.292L97.8894 111.999L59.7996 127.706Z" fill="#FFB5E6" stroke="white"/>
<path d="M59.95 120.892L59.95 103.106L97.0555 111.999L59.95 120.892Z" fill="#FFB5E6" stroke="white"/>
<path d="M138.6 96.292L138.6 127.706L100.511 111.999L138.6 96.292Z" fill="#FFB5E6" stroke="white"/>
<path d="M138.45 104.813L138.45 119.186L101.797 111.999L138.45 104.813Z" fill="#FFB5E6" stroke="white"/>
<circle cx="99.2" cy="111.999" r="8.5" fill="#FFB5E6" stroke="white"/>
<circle cx="49" cy="182.999" r="47" fill="white" stroke="#BB5353" stroke-width="4"/>
<circle cx="49" cy="182.999" r="24.1343" fill="white"/>
<circle cx="49" cy="182.999" r="24.1343" fill="#BB5353"/>
<circle cx="49" cy="182.999" r="13.8955" fill="white"/>
<circle cx="49" cy="182.999" r="13.8955" fill="white"/>
<circle cx="49" cy="182.999" r="8.04478" fill="white"/>
<circle cx="49" cy="182.999" r="8.04478" fill="#BB5353"/>
<mask id="path-12-inside-1_2_16" fill="white">
<path d="M100.499 0C125.17 6.13694 144.854 25.9919 151.997 51.5576H106.999V80.998H92.999V51.5576H49C56.1429 25.9917 75.8273 6.137 100.499 0Z"/>
</mask>
<path d="M100.499 0C125.17 6.13694 144.854 25.9919 151.997 51.5576H106.999V80.998H92.999V51.5576H49C56.1429 25.9917 75.8273 6.137 100.499 0Z" fill="#B5B5B5"/>
<path d="M100.499 0L100.74 -0.970428L100.499 -1.03047L100.258 -0.970428L100.499 0ZM151.997 51.5576V52.5576H153.315L152.96 51.2885L151.997 51.5576ZM106.999 51.5576V50.5576H105.999V51.5576H106.999ZM106.999 80.998V81.998H107.999V80.998H106.999ZM92.999 80.998H91.999V81.998H92.999V80.998ZM92.999 51.5576H93.999V50.5576H92.999V51.5576ZM49 51.5576L48.0369 51.2885L47.6823 52.5576H49V51.5576ZM100.499 0L100.258 0.970428C124.556 7.01463 143.981 26.5836 151.034 51.8267L151.997 51.5576L152.96 51.2885C145.727 25.4002 125.785 5.25924 100.74 -0.970428L100.499 0ZM151.997 51.5576V50.5576H106.999V51.5576V52.5576H151.997V51.5576ZM106.999 51.5576H105.999V80.998H106.999H107.999V51.5576H106.999ZM106.999 80.998V79.998H92.999V80.998V81.998H106.999V80.998ZM92.999 80.998H93.999V51.5576H92.999H91.999V80.998H92.999ZM92.999 51.5576V50.5576H49V51.5576V52.5576H92.999V51.5576ZM49 51.5576L49.9631 51.8267C57.0159 26.5834 76.4415 7.0147 100.74 0.970428L100.499 0L100.258 -0.970428C75.2132 5.2593 55.27 25.4 48.0369 51.2885L49 51.5576Z" fill="#F1F1F1" mask="url(#path-12-inside-1_2_16)"/>
<mask id="path-14-inside-2_2_16" fill="white">
<path d="M100.499 0C119.422 6.13707 134.516 25.9922 139.995 51.5576H105.484V80.998H94.7471V51.5576H61.002C66.4806 25.992 81.5763 6.1371 100.499 0Z"/>
</mask>
<path d="M100.499 0C119.422 6.13707 134.516 25.9922 139.995 51.5576H105.484V80.998H94.7471V51.5576H61.002C66.4806 25.992 81.5763 6.1371 100.499 0Z" fill="#B5B5B5"/>
<path d="M100.499 0L100.808 -0.951222L100.499 -1.05128L100.191 -0.951223L100.499 0ZM139.995 51.5576V52.5576H141.232L140.973 51.3481L139.995 51.5576ZM105.484 51.5576V50.5576H104.484V51.5576H105.484ZM105.484 80.998V81.998H106.484V80.998H105.484ZM94.7471 80.998H93.7471V81.998H94.7471V80.998ZM94.7471 51.5576H95.7471V50.5576H94.7471V51.5576ZM61.002 51.5576L60.0242 51.3481L59.765 52.5576H61.002V51.5576ZM100.499 0L100.191 0.951222C118.663 6.94229 133.585 26.4196 139.017 51.7672L139.995 51.5576L140.973 51.3481C135.447 25.5648 120.18 5.33185 100.808 -0.951222L100.499 0ZM139.995 51.5576V50.5576H105.484V51.5576V52.5576H139.995V51.5576ZM105.484 51.5576H104.484V80.998H105.484H106.484V51.5576H105.484ZM105.484 80.998V79.998H94.7471V80.998V81.998H105.484V80.998ZM94.7471 80.998H95.7471V51.5576H94.7471H93.7471V80.998H94.7471ZM94.7471 51.5576V50.5576H61.002V51.5576V52.5576H94.7471V51.5576ZM61.002 51.5576L61.9798 51.7672C67.4117 26.4194 82.335 6.94234 100.808 0.951223L100.499 0L100.191 -0.951223C80.8177 5.33187 65.5495 25.5646 60.0242 51.3481L61.002 51.5576Z" fill="#D8D8D8" mask="url(#path-14-inside-2_2_16)"/>
</svg>
